<svg width="227" height="30" viewBox="0 0 227 30" fill="none" xmlns="http://www.w3.org/2000/svg">
<path d="M2.64 29.32C1.81333 29.32 1.17333 29.0933 0.72 28.64C0.293334 28.16 0.0800003 27.5067 0.0800003 26.68V3.12C0.0800003 2.26667 0.293334 1.61333 0.72 1.16C1.17333 0.706665 1.81333 0.479998 2.64 0.479998C3.46667 0.479998 4.09333 0.706665 4.52 1.16C4.97333 1.61333 5.2 2.26667 5.2 3.12V26.68C5.2 27.5067 4.98667 28.16 4.56 28.64C4.13333 29.0933 3.49333 29.32 2.64 29.32ZM13.3691 29.32C12.5691 29.32 11.9557 29.1067 11.5291 28.68C11.1024 28.2267 10.8891 27.5867 10.8891 26.76V11.64C10.8891 10.8133 11.1024 10.1867 11.5291 9.76C11.9557 9.33333 12.5557 9.12 13.3291 9.12C14.1024 9.12 14.7024 9.33333 15.1291 9.76C15.5557 10.1867 15.7691 10.8133 15.7691 11.64V14.36L15.3291 13.36C15.9157 11.9467 16.8224 10.88 18.0491 10.16C19.3024 9.41333 20.7157 9.04 22.2891 9.04C23.8624 9.04 25.1557 9.33333 26.1691 9.92C27.1824 10.5067 27.9424 11.4 28.4491 12.6C28.9557 13.7733 29.2091 15.2667 29.2091 17.08V26.76C29.2091 27.5867 28.9957 28.2267 28.5691 28.68C28.1424 29.1067 27.5291 29.32 26.7291 29.32C25.9291 29.32 25.3024 29.1067 24.8491 28.68C24.4224 28.2267 24.2091 27.5867 24.2091 26.76V17.32C24.2091 15.8 23.9157 14.6933 23.3291 14C22.7691 13.3067 21.8891 12.96 20.6891 12.96C19.2224 12.96 18.0491 13.4267 17.1691 14.36C16.3157 15.2667 15.8891 16.48 15.8891 18V26.76C15.8891 28.4667 15.0491 29.32 13.3691 29.32ZM42.0122 29.32C41.3455 29.32 40.7589 29.1467 40.2522 28.8C39.7722 28.4533 39.3722 27.92 39.0522 27.2L32.6922 12.44C32.4522 11.8533 32.3589 11.3067 32.4122 10.8C32.4922 10.2933 32.7322 9.89333 33.1322 9.6C33.5589 9.28 34.1322 9.12 34.8522 9.12C35.4655 9.12 35.9589 9.26667 36.3322 9.56C36.7055 9.82667 37.0389 10.3467 37.3322 11.12L42.7322 24.6H41.5322L47.0922 11.08C47.3855 10.3333 47.7189 9.82667 48.0922 9.56C48.4922 9.26667 49.0255 9.12 49.6922 9.12C50.2789 9.12 50.7455 9.28 51.0922 9.6C51.4389 9.89333 51.6522 10.2933 51.7322 10.8C51.8122 11.28 51.7189 11.8133 51.4522 12.4L44.9722 27.2C44.6789 27.92 44.2789 28.4533 43.7722 28.8C43.2922 29.1467 42.7055 29.32 42.0122 29.32ZM64.4353 29.4C62.222 29.4 60.3153 28.9867 58.7153 28.16C57.1153 27.3333 55.8753 26.16 54.9953 24.64C54.142 23.12 53.7153 21.32 53.7153 19.24C53.7153 17.2133 54.1286 15.44 54.9553 13.92C55.8086 12.4 56.9686 11.2133 58.4353 10.36C59.9286 9.48 61.622 9.04 63.5153 9.04C64.902 9.04 66.142 9.26667 67.2353 9.72C68.3553 10.1733 69.302 10.8267 70.0753 11.68C70.8753 12.5333 71.4753 13.5733 71.8753 14.8C72.302 16 72.5153 17.36 72.5153 18.88C72.5153 19.36 72.342 19.7333 71.9953 20C71.6753 20.24 71.2086 20.36 70.5953 20.36H57.7553V17.48H68.9953L68.3553 18.08C68.3553 16.8533 68.1686 15.8267 67.7953 15C67.4486 14.1733 66.9286 13.5467 66.2353 13.12C65.5686 12.6667 64.7286 12.44 63.7153 12.44C62.5953 12.44 61.6353 12.7067 60.8353 13.24C60.062 13.7467 59.462 14.48 59.0353 15.44C58.6353 16.3733 58.4353 17.4933 58.4353 18.8V19.08C58.4353 21.2667 58.942 22.9067 59.9553 24C60.9953 25.0667 62.5153 25.6 64.5153 25.6C65.2086 25.6 65.982 25.52 66.8353 25.36C67.7153 25.1733 68.542 24.8667 69.3153 24.44C69.8753 24.12 70.3686 23.9867 70.7953 24.04C71.222 24.0667 71.5553 24.2133 71.7953 24.48C72.062 24.7467 72.222 25.08 72.2753 25.48C72.3286 25.8533 72.2486 26.24 72.0353 26.64C71.8486 27.04 71.5153 27.3867 71.0353 27.68C70.102 28.2667 69.022 28.7067 67.7953 29C66.5953 29.2667 65.4753 29.4 64.4353 29.4ZM78.955 29.32C78.155 29.32 77.5417 29.1067 77.115 28.68C76.6883 28.2267 76.475 27.5867 76.475 26.76V11.64C76.475 10.8133 76.6883 10.1867 77.115 9.76C77.5417 9.33333 78.1417 9.12 78.915 9.12C79.6883 9.12 80.2883 9.33333 80.715 9.76C81.1417 10.1867 81.355 10.8133 81.355 11.64V14.36L80.915 13.36C81.5017 11.9467 82.4083 10.88 83.635 10.16C84.8883 9.41333 86.3017 9.04 87.875 9.04C89.4483 9.04 90.7417 9.33333 91.755 9.92C92.7683 10.5067 93.5283 11.4 94.035 12.6C94.5417 13.7733 94.795 15.2667 94.795 17.08V26.76C94.795 27.5867 94.5817 28.2267 94.155 28.68C93.7283 29.1067 93.115 29.32 92.315 29.32C91.515 29.32 90.8883 29.1067 90.435 28.68C90.0083 28.2267 89.795 27.5867 89.795 26.76V17.32C89.795 15.8 89.5017 14.6933 88.915 14C88.355 13.3067 87.475 12.96 86.275 12.96C84.8083 12.96 83.635 13.4267 82.755 14.36C81.9017 15.2667 81.475 16.48 81.475 18V26.76C81.475 28.4667 80.635 29.32 78.955 29.32ZM108.833 29.4C107.1 29.4 105.647 29.1067 104.473 28.52C103.327 27.9333 102.473 27.08 101.913 25.96C101.353 24.8133 101.073 23.4 101.073 21.72V13.2H98.9934C98.3534 13.2 97.8601 13.04 97.5134 12.72C97.1668 12.3733 96.9934 11.9067 96.9934 11.32C96.9934 10.7067 97.1668 10.24 97.5134 9.92C97.8601 9.6 98.3534 9.44 98.9934 9.44H101.073V5.8C101.073 4.97333 101.287 4.34667 101.713 3.92C102.167 3.49333 102.793 3.28 103.593 3.28C104.393 3.28 105.007 3.49333 105.433 3.92C105.86 4.34667 106.073 4.97333 106.073 5.8V9.44H110.313C110.953 9.44 111.447 9.6 111.793 9.92C112.14 10.24 112.313 10.7067 112.313 11.32C112.313 11.9067 112.14 12.3733 111.793 12.72C111.447 13.04 110.953 13.2 110.313 13.2H106.073V21.44C106.073 22.72 106.353 23.68 106.913 24.32C107.473 24.96 108.38 25.28 109.633 25.28C110.087 25.28 110.487 25.24 110.833 25.16C111.18 25.08 111.487 25.0267 111.753 25C112.073 24.9733 112.34 25.08 112.553 25.32C112.767 25.5333 112.873 25.9867 112.873 26.68C112.873 27.2133 112.78 27.6933 112.593 28.12C112.433 28.52 112.127 28.8 111.673 28.96C111.327 29.0667 110.873 29.16 110.313 29.24C109.753 29.3467 109.26 29.4 108.833 29.4ZM121.665 29.4C120.252 29.4 118.985 29.1333 117.865 28.6C116.772 28.04 115.905 27.2933 115.265 26.36C114.652 25.4267 114.345 24.3733 114.345 23.2C114.345 21.76 114.718 20.6267 115.465 19.8C116.212 18.9467 117.425 18.3333 119.105 17.96C120.785 17.5867 123.038 17.4 125.865 17.4H127.865V20.28H125.905C124.252 20.28 122.932 20.36 121.945 20.52C120.958 20.68 120.252 20.96 119.825 21.36C119.425 21.7333 119.225 22.2667 119.225 22.96C119.225 23.84 119.532 24.56 120.145 25.12C120.758 25.68 121.612 25.96 122.705 25.96C123.585 25.96 124.358 25.76 125.025 25.36C125.718 24.9333 126.265 24.36 126.665 23.64C127.065 22.92 127.265 22.0933 127.265 21.16V16.56C127.265 15.2267 126.972 14.2667 126.385 13.68C125.798 13.0933 124.812 12.8 123.425 12.8C122.652 12.8 121.812 12.8933 120.905 13.08C120.025 13.2667 119.092 13.5867 118.105 14.04C117.598 14.28 117.145 14.3467 116.745 14.24C116.372 14.1333 116.078 13.92 115.865 13.6C115.652 13.2533 115.545 12.88 115.545 12.48C115.545 12.08 115.652 11.6933 115.865 11.32C116.078 10.92 116.438 10.6267 116.945 10.44C118.172 9.93333 119.345 9.57333 120.465 9.36C121.612 9.14667 122.652 9.04 123.585 9.04C125.505 9.04 127.078 9.33333 128.305 9.92C129.558 10.5067 130.492 11.4 131.105 12.6C131.718 13.7733 132.025 15.2933 132.025 17.16V26.76C132.025 27.5867 131.825 28.2267 131.425 28.68C131.025 29.1067 130.452 29.32 129.705 29.32C128.958 29.32 128.372 29.1067 127.945 28.68C127.545 28.2267 127.345 27.5867 127.345 26.76V24.84H127.665C127.478 25.7733 127.105 26.5867 126.545 27.28C126.012 27.9467 125.332 28.4667 124.505 28.84C123.678 29.2133 122.732 29.4 121.665 29.4ZM139.66 29.32C138.833 29.32 138.193 29.1067 137.74 28.68C137.313 28.2267 137.1 27.5867 137.1 26.76V11.64C137.1 10.8133 137.313 10.1867 137.74 9.76C138.167 9.33333 138.767 9.12 139.54 9.12C140.313 9.12 140.913 9.33333 141.34 9.76C141.767 10.1867 141.98 10.8133 141.98 11.64V14.16H141.58C141.953 12.56 142.687 11.3467 143.78 10.52C144.873 9.69333 146.327 9.2 148.14 9.04C148.7 8.98667 149.14 9.13333 149.46 9.48C149.807 9.8 150.007 10.3067 150.06 11C150.113 11.6667 149.953 12.2133 149.58 12.64C149.233 13.04 148.7 13.28 147.98 13.36L147.1 13.44C145.473 13.6 144.247 14.1067 143.42 14.96C142.593 15.7867 142.18 16.96 142.18 18.48V26.76C142.18 27.5867 141.967 28.2267 141.54 28.68C141.113 29.1067 140.487 29.32 139.66 29.32ZM155.244 29.28C154.444 29.28 153.831 29.04 153.404 28.56C152.977 28.08 152.764 27.4133 152.764 26.56V11.88C152.764 11 152.977 10.3333 153.404 9.88C153.831 9.4 154.444 9.16 155.244 9.16C156.044 9.16 156.657 9.4 157.084 9.88C157.537 10.3333 157.764 11 157.764 11.88V26.56C157.764 27.4133 157.551 28.08 157.124 28.56C156.697 29.04 156.071 29.28 155.244 29.28ZM155.244 5.44C154.311 5.44 153.577 5.21333 153.044 4.76C152.537 4.28 152.284 3.62667 152.284 2.8C152.284 1.94667 152.537 1.29333 153.044 0.839998C153.577 0.386666 154.311 0.159999 155.244 0.159999C156.204 0.159999 156.937 0.386666 157.444 0.839998C157.951 1.29333 158.204 1.94667 158.204 2.8C158.204 3.62667 157.951 4.28 157.444 4.76C156.937 5.21333 156.204 5.44 155.244 5.44ZM170.119 29.4C168.973 29.4 167.759 29.28 166.479 29.04C165.199 28.8 164.053 28.3867 163.039 27.8C162.613 27.5333 162.306 27.2267 162.119 26.88C161.959 26.5067 161.893 26.1467 161.919 25.8C161.973 25.4267 162.106 25.1067 162.319 24.84C162.559 24.5733 162.853 24.4 163.199 24.32C163.573 24.24 163.973 24.3067 164.399 24.52C165.466 25.0267 166.466 25.3867 167.399 25.6C168.333 25.7867 169.253 25.88 170.159 25.88C171.439 25.88 172.386 25.6667 172.999 25.24C173.639 24.7867 173.959 24.2 173.959 23.48C173.959 22.8667 173.746 22.4 173.319 22.08C172.919 21.7333 172.306 21.48 171.479 21.32L167.479 20.56C165.826 20.24 164.559 19.64 163.679 18.76C162.826 17.8533 162.399 16.6933 162.399 15.28C162.399 14 162.746 12.8933 163.439 11.96C164.159 11.0267 165.146 10.3067 166.399 9.8C167.653 9.29333 169.093 9.04 170.719 9.04C171.893 9.04 172.986 9.17333 173.999 9.44C175.039 9.68 176.039 10.0667 176.999 10.6C177.399 10.8133 177.666 11.0933 177.799 11.44C177.959 11.7867 177.999 12.1467 177.919 12.52C177.839 12.8667 177.679 13.1867 177.439 13.48C177.199 13.7467 176.893 13.92 176.519 14C176.173 14.0533 175.773 13.9733 175.319 13.76C174.493 13.3333 173.693 13.0267 172.919 12.84C172.173 12.6533 171.453 12.56 170.759 12.56C169.453 12.56 168.479 12.7867 167.839 13.24C167.226 13.6933 166.919 14.2933 166.919 15.04C166.919 15.6 167.106 16.0667 167.479 16.44C167.853 16.8133 168.426 17.0667 169.199 17.2L173.199 17.96C174.933 18.28 176.239 18.8667 177.119 19.72C178.026 20.5733 178.479 21.72 178.479 23.16C178.479 25.1067 177.719 26.64 176.199 27.76C174.679 28.8533 172.653 29.4 170.119 29.4Z" fill="black"/>
<path d="M185.531 29.32C184.704 29.32 184.064 29.0933 183.611 28.64C183.184 28.16 182.971 27.5067 182.971 26.68V3.08C182.971 2.22667 183.184 1.58667 183.611 1.16C184.064 0.706665 184.704 0.479998 185.531 0.479998C186.357 0.479998 186.984 0.706665 187.411 1.16C187.864 1.58667 188.091 2.22667 188.091 3.08V13.28H188.171L199.651 1.76C200.077 1.33333 200.504 1.01333 200.931 0.799998C201.357 0.586665 201.837 0.479998 202.371 0.479998C203.144 0.479998 203.691 0.679998 204.011 1.08C204.357 1.48 204.491 1.94667 204.411 2.48C204.357 3.01333 204.104 3.50667 203.651 3.96L191.971 15.52L192.011 13.2L204.211 25.6C204.771 26.1333 205.064 26.6933 205.091 27.28C205.117 27.8667 204.931 28.36 204.531 28.76C204.157 29.1333 203.597 29.32 202.851 29.32C202.211 29.32 201.691 29.1867 201.291 28.92C200.917 28.6533 200.477 28.2667 199.971 27.76L188.171 15.96H188.091V26.68C188.091 27.5067 187.877 28.16 187.451 28.64C187.024 29.0933 186.384 29.32 185.531 29.32ZM215.782 29.4C214.155 29.4 212.808 29.1067 211.742 28.52C210.675 27.9067 209.875 27 209.342 25.8C208.835 24.6 208.582 23.1067 208.582 21.32V11.64C208.582 10.7867 208.795 10.16 209.222 9.76C209.648 9.33333 210.262 9.12 211.062 9.12C211.862 9.12 212.475 9.33333 212.902 9.76C213.355 10.16 213.582 10.7867 213.582 11.64V21.4C213.582 22.7867 213.862 23.8133 214.422 24.48C214.982 25.1467 215.875 25.48 217.102 25.48C218.435 25.48 219.528 25.0267 220.382 24.12C221.235 23.1867 221.662 21.96 221.662 20.44V11.64C221.662 10.7867 221.875 10.16 222.302 9.76C222.728 9.33333 223.342 9.12 224.142 9.12C224.942 9.12 225.555 9.33333 225.982 9.76C226.435 10.16 226.662 10.7867 226.662 11.64V26.76C226.662 28.4667 225.848 29.32 224.222 29.32C223.448 29.32 222.848 29.1067 222.422 28.68C221.995 28.2267 221.782 27.5867 221.782 26.76V23.72L222.342 24.92C221.782 26.36 220.928 27.4667 219.782 28.24C218.662 29.0133 217.328 29.4 215.782 29.4Z" fill="#3950A2"/>
</svg>
